HIERARCHY
ROOT Hips
{
	OFFSET 55.310501 45.591206 43.872097
	CHANNELS 6 Xposition Yposition Zposition Zrotation Xrotation Yrotation
	JOINT Chest
	{
		OFFSET -0.153500 1.163101 7.852402
		CHANNELS 6 Xposition Yposition Zposition Zrotation Xrotation Yrotation
		JOINT Chest2
		{
			OFFSET 0.000000 0.000000 3.343300
			CHANNELS 6 Xposition Yposition Zposition Zrotation Xrotation Yrotation
			JOINT Neck
			{
				OFFSET 0.000000 0.000000 7.785500
				CHANNELS 6 Xposition Yposition Zposition Zrotation Xrotation Yrotation
				JOINT Head
				{
					OFFSET 0.000000 0.000000 2.173901
					CHANNELS 6 Xposition Yposition Zposition Zrotation Xrotation Yrotation
					End Site
					{
						OFFSET 0.000000 0.000000 10.528198
					}
				}
			}
			JOINT LeftCollar
			{
				OFFSET 2.676300 -1.652401 4.938301
				CHANNELS 6 Xposition Yposition Zposition Zrotation Xrotation Yrotation
				JOINT LeftShoulder
				{
					OFFSET 4.299000 0.000000 0.000000
					CHANNELS 6 Xposition Yposition Zposition Zrotation Xrotation Yrotation
					JOINT LeftElbow
					{
						OFFSET 0.000000 0.000000 -10.245102
						CHANNELS 6 Xposition Yposition Zposition Zrotation Xrotation Yrotation
						JOINT LeftWrist
						{
							OFFSET 0.000000 0.000000 -12.703300
							CHANNELS 6 Xposition Yposition Zposition Zrotation Xrotation Yrotation
							End Site
							{
								OFFSET 0.000000 0.000000 -2.173901
							}
						}
					}
				}
			}
			JOINT RightCollar
			{
				OFFSET -2.534599 -1.686401 5.195000
				CHANNELS 6 Xposition Yposition Zposition Zrotation Xrotation Yrotation
				JOINT RightShoulder
				{
					OFFSET -4.144100 0.000000 0.000000
					CHANNELS 6 Xposition Yposition Zposition Zrotation Xrotation Yrotation
					JOINT RightElbow
					{
						OFFSET 0.000000 0.000000 -10.116501
						CHANNELS 6 Xposition Yposition Zposition Zrotation Xrotation Yrotation
						JOINT RightWrist
						{
							OFFSET 0.000000 0.000000 -12.937801
							CHANNELS 6 Xposition Yposition Zposition Zrotation Xrotation Yrotation
							End Site
							{
								OFFSET 0.000000 0.000000 -2.173901
							}
						}
					}
				}
			}
		}
	}
	JOINT LeftHip
	{
		OFFSET 2.175598 0.064499 -2.662899
		CHANNELS 6 Xposition Yposition Zposition Zrotation Xrotation Yrotation
		JOINT LeftKnee
		{
			OFFSET 0.000000 -0.000004 -18.585800
			CHANNELS 6 Xposition Yposition Zposition Zrotation Xrotation Yrotation
			JOINT LeftAnkle
			{
				OFFSET 0.000000 0.000000 -18.979500
				CHANNELS 6 Xposition Yposition Zposition Zrotation Xrotation Yrotation
				End Site
				{
					OFFSET 0.000000 -9.264000 0.000000
				}
			}
		}
	}
	JOINT RightHip
	{
		OFFSET -2.092400 -0.058102 -2.581200
		CHANNELS 6 Xposition Yposition Zposition Zrotation Xrotation Yrotation
		JOINT RightKnee
		{
			OFFSET 0.000000 -0.000004 -18.665001
			CHANNELS 6 Xposition Yposition Zposition Zrotation Xrotation Yrotation
			JOINT RightAnkle
			{
				OFFSET 0.000000 0.000000 -18.566601
				CHANNELS 6 Xposition Yposition Zposition Zrotation Xrotation Yrotation
				End Site
				{
					OFFSET 0.000000 -8.497601 0.000000
				}
			}
		}
	}
}
MOTION
Frames: 7
Frame Time: 0.041667
49.777195 79.684792 43.930496 1007.310507 -4.149539 1.300088 -0.153499 1.163106 7.852399 4.262778 11.108151 -1.499858 0.000000 -0.000003 3.343306 -1.958791 -2.634326 -0.029592 0.000003 0.000003 7.785502 -17.129641 -9.202339 9.020871 -0.000008 0.000000 2.173909 -3.800403 -5.669270 -3.092369 2.676300 -1.652401 4.938301 -6.942127 3.629925 5.847328 4.298996 0.000015 0.000005 -42.142312 8.474309 -23.177463 -0.000014 -0.000003 -10.245101 -6.981223 716.118779 2.573253 -0.000013 0.000001 -12.703297 1293.655533 -183.232187 549.889787 -2.534592 -1.686401 5.194998 8.300357 3.181589 -4.759246 -4.144102 0.000001 0.000003 32.161954 7.664627 20.996843 0.000003 0.000002 -10.116497 -13.179578 -5.764111 -4.346475 0.000008 0.000011 -12.937799 -7.103009 -378.053511 -10.317076 2.175591 0.064489 -2.662905 -344.859639 -9.049507 -3.667330 -0.000006 -0.000012 -18.585794 196.626188 -199.215731 -167.722617 -0.000004 -0.000005 -18.979517 384.229669 8.630319 -127.732966 -2.092390 -0.058099 -2.581208 370.904817 12.272153 0.534531 0.000010 -0.000012 -18.665005 -1129.320635 24.585488 -4.856002 -0.000004 -0.000009 -18.566603 711.475343 22.548763 8.725733
49.525192 79.423904 43.966488 1008.071554 -4.255869 1.384827 -0.153497 1.163097 7.852390 4.267550 11.132258 -1.575067 -0.000007 -0.000000 3.343304 -1.969452 -2.645583 -0.031469 0.000014 -0.000004 7.785498 -16.889530 -9.142198 8.913110 0.000009 -0.000000 2.173911 -3.719198 -5.536574 -3.079532 2.676303 -1.652401 4.938296 -6.904829 3.633563 5.831495 4.298998 0.000005 0.000007 -42.260320 8.453832 -23.165476 -0.000004 0.000006 -10.245104 -7.137811 716.016599 2.635854 -0.000002 0.000002 -12.703293 1293.591821 -183.004291 549.881482 -2.534596 -1.686404 5.195002 8.238129 3.148818 -4.774882 -4.144104 0.000012 0.000001 32.573124 7.869441 20.907552 0.000004 0.000022 -10.116492 -13.224741 -5.750349 -4.387273 0.000004 0.000002 -12.937804 -5.920280 -377.988597 -10.110773 2.175599 0.064493 -2.662905 -345.349937 -8.417466 -3.690839 0.000001 -0.000013 -18.585798 196.645545 -199.145012 -167.640286 -0.000003 -0.000006 -18.979513 383.874226 8.639558 -127.786692 -2.092390 -0.058108 -2.581205 370.930717 12.444524 0.765803 -0.000003 -0.000000 -18.665001 -1128.265289 25.427295 -4.917200 0.000006 -0.000004 -18.566601 710.756315 23.051906 7.857046
49.274700 79.163010 43.996292 1008.905930 -4.383427 1.492516 -0.153489 1.163106 7.852412 4.183510 11.203913 -1.685231 0.000013 0.000012 3.343299 -1.948506 -2.681007 -0.030808 0.000001 0.000003 7.785503 -16.675335 -9.123400 8.825153 0.000004 0.000006 2.173894 -3.648217 -5.383801 -3.063778 2.676290 -1.652385 4.938303 -6.846338 3.587061 5.846965 4.298985 0.000004 -0.000004 -42.461954 8.444763 -23.104199 -0.000016 0.000008 -10.245108 -7.410201 716.020588 2.634102 -0.000014 0.000004 -12.703302 1293.711595 -182.647291 550.087699 -2.534595 -1.686394 5.195003 8.042584 3.049692 -4.723936 -4.144106 0.000003 -0.000006 33.275544 8.169740 20.690702 -0.000000 0.000010 -10.116498 -12.945499 -5.739681 -4.347576 -0.000006 0.000008 -12.937804 -5.509185 -378.087225 -10.415170 2.175596 0.064492 -2.662887 -346.113880 -7.692385 -3.734435 0.000003 -0.000006 -18.585800 196.857554 -198.923222 -167.533954 0.000001 -0.000005 -18.979509 383.593915 8.705179 -127.821239 -2.092388 -0.058104 -2.581190 370.934433 12.594701 1.004464 -0.000005 -0.000009 -18.665010 -1127.393429 26.345476 -4.991514 0.000004 -0.000006 -18.566603 710.090017 23.690106 6.966268
49.027203 78.901192 44.019894 1009.843360 -4.531125 1.622516 -0.153509 1.163109 7.852406 4.049151 11.338555 -1.823687 0.000001 0.000011 3.343308 -1.937572 -2.752483 -0.029318 0.000014 0.000010 7.785504 -16.443981 -9.151201 8.686928 -0.000001 0.000002 2.173901 -3.642115 -5.232993 -3.048835 2.676303 -1.652382 4.938297 -6.779264 3.532905 5.917351 4.298994 0.000004 -0.000009 -42.820870 8.466191 -23.051231 -0.000006 0.000003 -10.245103 -7.839356 716.099709 2.577526 -0.000010 -0.000001 -12.703297 1294.020538 -182.165079 550.454016 -2.534586 -1.686393 5.195001 7.752916 2.884311 -4.716058 -4.144100 0.000004 0.000002 34.133078 8.641760 20.455144 -0.000001 -0.000001 -10.116502 -12.669535 -5.759100 -4.299495 -0.000004 0.000011 -12.937802 -5.399447 -378.000892 -10.327060 2.175587 0.064505 -2.662895 -346.967627 -6.955682 -3.810559 -0.000002 -0.000003 -18.585800 197.121131 -198.796658 -167.417758 -0.000010 -0.000004 -18.979513 383.277978 8.647551 -127.909362 -2.092395 -0.058097 -2.581197 370.697425 12.649996 1.307242 0.000002 -0.000004 -18.665009 -1126.776526 27.437923 -4.932500 0.000002 -0.000009 -18.566605 709.436723 24.480445 6.382850
48.782295 78.638794 44.037292 1010.901875 -4.700946 1.771500 -0.153503 1.163097 7.852398 3.758471 11.494430 -1.953857 0.000003 -0.000002 3.343308 -1.899730 -2.806394 -0.028789 0.000003 -0.000005 7.785501 -16.244101 -9.189143 8.556849 -0.000012 0.000000 2.173894 -3.620855 -5.112082 -3.042742 2.676295 -1.652402 4.938300 -6.705172 3.435203 5.968698 4.299002 -0.000004 0.000001 -43.165508 8.473518 -22.982871 -0.000008 0.000005 -10.245104 -8.300275 716.196534 2.516241 -0.000014 -0.000002 -12.703300 1294.301505 -181.739900 550.793230 -2.534602 -1.686406 5.195007 7.505663 2.731007 -4.715233 -4.144094 0.000001 -0.000007 35.069671 9.187633 20.196530 0.000004 0.000014 -10.116493 -12.698785 -5.793012 -4.277239 -0.000006 -0.000002 -12.937799 -5.439544 -377.877293 -10.258893 2.175598 0.064492 -2.662912 -347.989860 -6.161415 -3.880676 -0.000000 -0.000001 -18.585804 197.245700 -198.577641 -167.272330 0.000003 -0.000002 -18.979513 383.139653 8.520448 -128.068820 -2.092398 -0.058108 -2.581201 370.249993 12.620109 1.675088 0.000000 -0.000019 -18.665007 -1126.266283 28.703283 -4.805759 0.000013 -0.000009 -18.566610 708.929759 25.441352 5.892415
48.543098 78.374207 44.052090 1011.982903 -4.875981 1.921110 -0.153500 1.163099 7.852411 3.308162 11.668006 -2.067259 0.000001 -0.000003 3.343305 -1.746077 -2.855163 -0.025050 -0.000004 -0.000014 7.785496 -15.997961 -9.219428 8.433200 0.000009 0.000010 2.173902 -3.623241 -5.009183 -2.984246 2.676291 -1.652401 4.938293 -6.588938 3.234749 6.050975 4.298986 0.000000 -0.000003 -43.454152 8.521903 -22.895581 -0.000005 -0.000004 -10.245101 -8.655229 716.243580 2.478300 -0.000018 0.000005 -12.703294 1294.308608 -181.510173 551.000759 -2.534595 -1.686406 5.194997 7.306469 2.680487 -4.614643 -4.144096 0.000008 -0.000007 35.758475 9.514163 19.924539 0.000004 0.000001 -10.116508 -12.475573 -5.832664 -4.225984 0.000007 0.000001 -12.937796 -5.739498 -377.676321 -10.080379 2.175591 0.064492 -2.662894 -348.946032 -5.389689 -3.940349 0.000000 -0.000010 -18.585802 197.228843 -198.406846 -167.080852 -0.000006 0.000012 -18.979517 383.036080 8.309781 -128.181860 -2.092395 -0.058106 -2.581192 369.667542 12.496239 2.103087 -0.000008 -0.000003 -18.665001 -1125.474419 30.117299 -4.724275 0.000000 -0.000002 -18.566603 708.206250 26.191539 5.124191
48.311398 78.108391 44.063591 1013.058903 -5.047920 2.068391 -0.153513 1.163103 7.852402 2.809843 11.826482 -2.178625 0.000004 0.000002 3.343303 -1.541438 -2.880916 -0.019644 0.000000 0.000005 7.785500 -15.704654 -9.232337 8.324475 -0.000000 -0.000001 2.173911 -3.666879 -4.941567 -2.898349 2.676297 -1.652397 4.938300 -6.457595 2.932525 6.093909 4.298986 0.000001 0.000002 -43.599823 8.533495 -22.748698 -0.000011 0.000003 -10.245099 -8.900250 716.260355 2.462341 0.000005 0.000007 -12.703297 1293.968847 -181.459029 551.098021 -2.534600 -1.686398 5.195005 7.168785 2.652228 -4.372974 -4.144104 0.000004 -0.000002 36.237808 9.708622 19.568798 0.000004 0.000001 -10.116505 -12.200486 -5.896931 -4.211347 0.000010 0.000007 -12.937803 -6.150144 -377.430926 -9.795602 2.175588 0.064491 -2.662899 -349.806854 -4.649418 -3.974789 -0.000005 -0.000004 -18.585796 197.209541 -198.290746 -166.936531 0.000005 0.000010 -18.979513 382.802706 8.015921 -128.315253 -2.092401 -0.058105 -2.581203 368.920182 12.226232 2.633383 -0.000010 -0.000003 -18.665005 -1124.407051 31.732212 -4.658008 0.000007 -0.000003 -18.566605 707.407282 27.162453 4.129717
